<svg width="158" height="34" viewBox="0 0 158 34" fill="none" xmlns="http://www.w3.org/2000/svg">
<path d="M33.237 0H0V34H33.237V0Z" fill="black"/>
<path d="M32.3523 1.00586H0.98291V33.0943H32.3533V1.00586H32.3523Z" fill="#FFEE00"/>
<path d="M2.65487 26.5559L6.78492 30.7813L16.3237 20.8222L26.2557 30.9825L30.3857 26.7571L20.552 16.6987L22.4205 14.7872V10.7638L23.6009 9.75706V13.0768L25.0753 14.3848L29.5994 9.75706L31.0737 10.8639C31.9593 7.64528 26.9437 0.201166 22.8136 4.32556L17.9956 9.25461L18.9785 10.4616L16.5203 12.8756L14.2587 10.4616L15.5374 9.35472L10.2278 4.12439C6.29255 0.804667 2.1625 5.83383 2.06421 10.8639L3.53949 9.65694L7.96441 14.586L9.53798 13.2779V10.2604L10.5209 11.0651V14.9883L12.4885 17L2.65487 26.5559ZM147.797 13.9825H151.043V10.1594H154.091V13.9825H157.336V4.52672H154.091V7.84644H151.043V4.52672H147.797V13.9825ZM128.032 7.24294C128.72 6.73956 129.703 6.43828 130.49 6.43828C130.884 6.43828 131.768 6.53839 131.768 7.34306C131.768 8.14772 130.982 8.14772 130.687 8.14772H129.114V10.2604H130.49C130.982 10.2604 131.867 10.2604 131.867 11.0651C131.867 11.3673 131.67 11.9708 130.589 11.9708C129.409 11.9708 128.72 11.6686 127.737 11.0651L126.852 13.2779C128.118 13.9945 129.537 14.375 130.982 14.3848C134.719 14.3848 135.21 12.172 135.21 11.4674C135.21 10.4616 134.621 9.45578 133.342 9.15356C134.128 8.75122 134.719 7.94656 134.719 6.94072C134.719 4.72789 132.456 4.2245 130.982 4.2245C129.703 4.2245 128.13 4.62683 127.147 5.13022L128.032 7.24294ZM120.854 3.21961C122.328 3.21961 123.901 2.61517 124.59 1.00583L122.427 0.201167C122.131 1.30806 121.247 1.40817 120.854 1.40817C120.46 1.40817 119.575 1.30806 119.28 0.201167L117.215 1.00583C117.903 2.71528 119.477 3.21867 120.854 3.21867V3.21961ZM115.838 4.52672V14.0817H118.985L122.23 8.85133V14.0817H125.475V4.52672H122.328L119.083 9.65694V4.52672H115.838ZM94.1056 11.9708V6.63944C93.0244 6.63944 91.844 7.44411 91.844 9.25461C91.9423 11.1662 93.0244 11.9708 94.1056 11.9708ZM96.9579 6.63944V11.9708C98.0391 11.9708 99.2195 11.1652 99.2195 9.35472C99.2195 7.54422 98.0391 6.63944 96.9579 6.63944ZM93.909 18.207V14.1837C91.9423 14.1837 88.7961 13.379 88.7961 9.25367C88.7961 5.13022 92.0406 4.32556 93.909 4.32556V0.201167H97.1545V4.32556C99.1212 4.32556 102.268 5.13022 102.268 9.25461C102.268 13.379 99.0229 14.1837 97.1545 14.1837V18.207H93.909ZM79.4539 11.9708V6.63944C78.3727 6.63944 77.1923 7.44411 77.1923 9.25461C77.1923 11.1662 78.2744 11.9708 79.4539 11.9708ZM82.3071 6.63944V11.9708C83.3883 11.9708 84.5687 11.1652 84.5687 9.35472C84.4704 7.54422 83.3883 6.63944 82.3071 6.63944ZM79.2573 18.207V14.1837C77.2915 14.1837 74.1443 13.379 74.1443 9.25367C74.1443 5.13022 77.2906 4.32556 79.2573 4.32556V0.201167H82.5027V4.32556C84.4686 4.32556 87.6157 5.13022 87.6157 9.25461C87.6157 13.379 84.3712 14.1837 82.5027 14.1837V18.207H79.2573ZM67.9493 3.21867C69.4236 3.21867 70.9972 2.61517 71.587 1.00583L69.4236 0.201167C69.1297 1.30806 68.2442 1.40817 67.8501 1.40817C67.4569 1.40817 66.5723 1.30806 66.2774 0.201167L64.2124 1.00583C64.9014 2.71528 66.474 3.21867 67.9493 3.21867ZM62.8354 4.52672V14.0817H65.9826L69.2271 8.85133V14.0817H72.4725V4.52672H69.3254L66.0808 9.65694V4.52672H62.8354ZM42.8741 3.0175V6.23711H44.0536C45.7255 6.23711 45.8238 5.23033 45.8238 4.62683C45.8238 3.92322 45.6263 3.0175 44.0536 3.0175H42.8732H42.8741ZM39.3329 13.9825V0H44.8399C48.5768 0 49.658 2.71622 49.658 4.62778C49.658 6.53839 48.5768 9.25461 44.9382 9.25461H42.9724V13.9825H39.3329ZM113.773 4.52672V14.0817H110.528V12.9767C109.938 13.8814 108.857 14.3839 107.774 14.3839C105.021 14.3839 103.153 11.9708 103.153 9.25461C103.153 6.53839 105.021 4.2245 107.774 4.2245C108.857 4.2245 109.938 4.62683 110.627 5.4315V4.52672H113.773ZM108.562 7.14283C107.185 7.14283 106.497 8.14772 106.497 9.25461C106.497 10.4616 107.283 11.3673 108.562 11.3673C109.839 11.3673 110.627 10.4607 110.627 9.25461C110.627 8.04761 109.839 7.14189 108.562 7.14189V7.14283ZM60.7704 4.52672V14.0817H57.525V12.9767C56.9352 13.8814 55.8531 14.3839 54.7719 14.3839C52.0188 14.3839 50.1504 11.9708 50.1504 9.25461C50.1504 6.53839 52.0188 4.2245 54.7719 4.2245C55.854 4.2245 56.9352 4.62683 57.6242 5.4315V4.52672H60.7704ZM55.5582 7.14283C54.1822 7.14283 53.4932 8.14772 53.4932 9.25461C53.4932 10.4616 54.2804 11.3673 55.5582 11.3673C56.8369 11.3673 57.6232 10.4607 57.6232 9.25461C57.6232 8.04761 56.8369 7.14189 55.5582 7.14189V7.14283ZM146.224 9.65694V10.0593H139.34C139.34 11.4674 140.029 12.172 141.406 12.172C142.094 12.172 142.585 11.9708 142.979 11.2663H146.125C145.634 13.5802 143.569 14.586 141.406 14.586C138.357 14.586 136.095 12.7755 136.095 9.55589C136.095 6.33722 138.16 4.42567 141.209 4.42567C144.355 4.32556 146.224 6.43733 146.224 9.65694ZM139.34 8.04761H143.077C142.881 7.14189 142.094 6.53839 141.209 6.53839C140.323 6.53839 139.537 7.04178 139.34 8.04761ZM43.5613 31.0826H44.151C44.7417 31.0826 45.2331 31.0826 45.6263 30.9825C46.0194 30.8814 46.3152 30.7813 46.6092 30.5802C46.905 30.379 47.1016 29.9757 47.1998 29.4733C47.2981 28.9699 47.2981 28.6686 47.1016 28.4674C46.905 28.2663 46.6101 28.0651 46.3143 28.0651C46.0204 28.0651 45.528 27.9641 44.8399 27.9641H44.2493L43.5613 31.0826ZM51.3299 19.9174L50.6409 23.035H45.1348L44.7417 24.9466H46.8067C47.8879 24.9466 48.6751 25.1477 49.3632 25.4499C50.0521 25.7522 50.4444 26.3547 50.7401 26.9582C50.9367 27.6628 51.0341 28.4674 50.7401 29.4733C50.5436 30.379 50.1495 31.2838 49.5597 31.8873C48.97 32.5918 48.281 33.0943 47.4947 33.3965C46.6122 33.7266 45.6807 33.8966 44.7417 33.8989H39.2337L42.1833 19.7162H51.329V19.9174H51.3299ZM59.9841 24.2429L57.525 28.7697H60.4755L59.9841 24.2429ZM55.9514 31.586L54.4779 34H50.6428L58.9029 19.8163H62.8363L65.097 34H61.2618L60.8687 31.586H55.9523H55.9514ZM77.2906 25.3489L78.3727 19.9174H82.0104L79.0607 34H75.4221L76.7008 28.2663H71.4887L70.3101 34H66.6715L69.6211 19.9174H73.1614L72.0793 25.3489H77.2915H77.2906ZM92.7296 19.9174H97.2537L90.3697 26.5568L94.7946 34H90.0748L86.7311 27.8639L85.4533 34H81.8147L84.7643 19.9174H88.4029L87.1252 25.7512H87.2234L92.7296 19.9174Z" fill="black"/>
</svg>
