<svg width="166" height="30" viewBox="0 0 166 30" fill="none" xmlns="http://www.w3.org/2000/svg">
<path d="M49.9383 7.41863C51.226 7.29116 52.5122 7.67479 53.5171 8.48608C54.5221 9.29736 55.1644 10.4707 55.3043 11.7507V12.6172C55.3043 15.7796 53.2363 17.5991 49.8621 17.5991H43.2661V22.711H40.5449V7.41863H49.9383ZM50.0689 14.9998C50.6724 15.0388 51.2671 14.8404 51.7251 14.4475C52.1832 14.0546 52.4678 13.4984 52.5179 12.8987V12.5305C52.582 11.8893 52.3894 11.2487 51.9819 10.7479C51.5743 10.2471 50.9847 9.9264 50.341 9.85543H43.2443V14.9457L50.0689 14.9998ZM65.5794 23.0142C60.6813 23.0142 56.654 19.7651 56.654 14.9781C56.654 10.1912 60.6813 6.94209 65.5794 6.94209C70.4774 6.94209 74.5047 10.1912 74.5047 14.9781C74.5047 19.7651 70.4774 23.0142 65.5794 23.0142ZM65.5794 9.53053C64.1058 9.42272 62.6491 9.89814 61.526 10.8534C60.4029 11.8086 59.7042 13.1665 59.582 14.6316V14.9565C59.582 18.1189 61.9113 20.4366 65.5685 20.4366C69.2257 20.4366 71.555 18.1189 71.555 14.9565C71.555 11.7941 69.2366 9.54136 65.5685 9.54136L65.5794 9.53053ZM85.977 23.0034C80.8395 23.0034 77.0516 19.7543 77.0516 14.9673C77.0516 10.1803 80.9701 6.93126 85.977 6.93126C88.5414 6.83602 91.0553 7.65828 93.0628 9.24894L91.5934 11.415C90.0267 10.1809 88.0946 9.49571 86.0967 9.46554C82.3089 9.46554 79.9796 11.7724 79.9796 14.8157C79.9796 17.859 82.3089 20.3608 86.0967 20.3608C88.1211 20.3752 90.0929 19.72 91.7022 18.498L93.1608 20.664C91.0597 22.1623 88.5401 22.9689 85.9552 22.9709L85.977 23.0034ZM116.628 18.8554L114.919 22.5377H111.871L119.327 7.3753H122.266L129.722 22.5377H126.674L124.965 18.8879L116.628 18.8554ZM117.825 16.4294H123.703L120.764 10.2237L117.825 16.4294Z" fill="black"/>
<path d="M144.623 22.6354V16.0289H134.609V22.6354H131.779V7.473H134.609V13.6787H144.623V7.41885H147.431V22.6354H144.623ZM151.698 22.6354V7.473H154.528V14.5343L162.223 7.473H165.652L157.815 14.7726L166 22.6787H162.212L154.517 15.2491V22.6137L151.698 22.6354ZM105.515 12.8881H98.9186V9.74736H109.803V7.31055H95.9797V22.5271H105.395C108.66 22.5271 111.022 20.6859 111.022 17.6534C111.022 14.621 108.954 12.9098 105.515 12.9098V12.8881ZM105.765 19.9711H98.9077V15.4549H105.765C107.474 15.4549 108.573 16.4296 108.573 17.7726C108.573 19.1155 107.724 20.0794 105.765 19.9386" fill="black"/>
<path d="M0 0H30.6944V15.5739H0V0Z" fill="#E9041E"/>
<path d="M0 14.7942H30.6944V29.9999H0V14.7942Z" fill="black"/>
<path d="M5.27905 13.9714H25.1977V15.7909H5.27905V13.9714Z" fill="white"/>
</svg>
