<svg width="156" height="62" viewBox="0 0 156 62" fill="none" xmlns="http://www.w3.org/2000/svg">
<path d="M71.2538 26.0661L74.4527 23.6978H63.7458V37.924H74.4527V35.5557H66.801V31.9135H73.3284V29.5453H66.801V26.0661H71.2538Z" fill="#21A038"/>
<path d="M55.663 29.2425H51.9542V26.0661H57.8907L61.0895 23.6978H48.8899V37.924H55.2597C58.8387 37.924 60.8902 36.2938 60.8902 33.4552C60.8995 30.7375 59.0404 29.2425 55.663 29.2425ZM55.1322 35.5487H51.9449V31.6108H55.1322C57.07 31.6108 57.9741 32.2722 57.9741 33.5832C57.9741 34.8944 57.0191 35.5487 55.1322 35.5487Z" fill="#21A038"/>
<path d="M83.1275 23.6978H77.2979V37.924H80.353V33.893H83.1345C86.8432 33.893 89.161 31.9298 89.161 28.7884C89.161 25.647 86.8484 23.6978 83.1275 23.6978ZM83.0627 31.5247H80.353V26.0661H83.0627C85.0214 26.0661 86.0992 27.0349 86.0992 28.7954C86.0992 30.5559 85.0214 31.5247 83.0627 31.5247Z" fill="#21A038"/>
<path d="M43.6444 34.8501C42.835 35.2917 41.9275 35.5199 41.0065 35.5137C38.2527 35.5137 36.2522 33.539 36.2522 30.8167C36.2522 28.0945 38.2527 26.1197 41.0065 26.1197C42.0027 26.1053 42.9773 26.4113 43.7881 26.993L45.9809 25.3629L45.8348 25.2347C44.5553 24.1053 42.8447 23.5068 40.8905 23.5068C38.7696 23.5068 36.8456 24.2264 35.4712 25.5305C34.7779 26.2032 34.2301 27.0121 33.8615 27.9067C33.4931 28.8013 33.3119 29.7625 33.3293 30.7305C33.313 31.71 33.4936 32.6828 33.8599 33.5907C34.2263 34.4986 34.7711 35.3228 35.4618 36.0145C36.921 37.3988 38.8631 38.1514 40.8696 38.1103C43.0719 38.1103 44.9957 37.3396 46.2985 35.9353L44.3212 34.4705L43.6444 34.8501Z" fill="#21A038"/>
<path d="M125.959 23.7167V37.9428H129.015V32.121H135.528V37.9428H138.58V23.7167H135.523V29.5501H129.009V23.7167H125.959ZM120.707 37.9428H123.92L117.95 23.7144H114.833L108.725 37.9428H111.819L113.055 35.0832H119.546L120.707 37.9428ZM113.971 32.6986L116.337 26.9886L118.563 32.6986H113.971ZM145.463 32.2049H147.364L152.053 37.9428H155.993L149.735 30.5841L155.196 23.7167H151.689L147.136 29.8133H145.451V23.7167H142.401V37.9428H145.458L145.463 32.2049ZM98.6211 29.2614V26.085H106.611V23.7167H95.5654V37.9428H101.944C105.523 37.9428 107.577 36.3127 107.577 33.474C107.577 30.7564 105.723 29.2614 102.339 29.2614H98.6211ZM98.6211 35.5746V31.6297H101.808C103.748 31.6297 104.65 32.2887 104.65 33.6021C104.65 34.9155 103.695 35.5746 101.808 35.5746H98.6211Z" fill="#21A038"/>
<path d="M23.7915 23.5837C24.3504 24.3094 24.8234 25.0979 25.2008 25.9335L14.4801 33.8721L9.99939 31.0497V27.6567L14.4801 30.4769L23.7915 23.5837Z" fill="#21A038"/>
<path d="M14.5004 40.6443C14.3354 40.6443 14.1722 40.64 14.0088 40.6316L13.8616 43.5736C14.0731 43.5838 14.2863 43.5897 14.5004 43.5897C18.0314 43.5897 21.2281 42.1626 23.5415 39.8543L21.4498 37.7681C19.6695 39.5438 17.2115 40.6443 14.5004 40.6443Z" fill="url(#paint0_linear)"/>
<path d="M4.66738 30.8362C4.66738 30.6716 4.67161 30.5087 4.68007 30.3458L1.73044 30.199C1.72028 30.4099 1.71436 30.6226 1.71436 30.8362C1.71436 34.3579 3.14518 37.5464 5.45937 39.8538L7.551 37.7675C5.7699 35.9919 4.66738 33.5402 4.66738 30.8362Z" fill="url(#paint1_linear)"/>
<path d="M14.4983 40.6437C11.6113 40.6437 9.01109 39.3963 7.21053 37.4131L5.01733 39.3921C7.35689 41.9696 10.7381 43.5891 14.4983 43.5891V40.6437Z" fill="url(#paint2_linear)"/>
<path d="M27.2866 30.8364C27.2866 30.0567 27.2164 29.2928 27.0818 28.552L24.3295 30.5749C24.332 30.6619 24.3327 30.7488 24.3327 30.8364C24.3327 33.716 23.0822 36.3096 21.0938 38.1054L23.078 40.2931C25.6628 37.9603 27.2866 34.5879 27.2866 30.8364Z" fill="#21A038"/>
<path d="M14.4995 21.0295C14.6645 21.0295 14.8278 21.0354 14.9912 21.043L15.1383 18.0993C14.9268 18.0892 14.7135 18.0833 14.4995 18.0833C10.9685 18.0833 7.77186 19.5104 5.4585 21.8186L7.55015 23.9048C9.33042 22.1292 11.7893 21.0295 14.4995 21.0295Z" fill="url(#paint3_linear)"/>
<path d="M24.6171 23.04C25.2212 23.8181 25.7374 24.668 26.1494 25.5752L14.499 34.1388L9.63196 31.0956V27.4345L14.499 30.4778L24.6171 23.04Z" fill="#21A038"/>
<path d="M7.90639 23.5669L5.92221 21.3794C3.33809 23.7129 1.71436 27.0854 1.71436 30.8359H4.66823C4.66738 27.9563 5.91798 25.3629 7.90639 23.5669Z" fill="url(#paint4_linear)"/>
<path d="M20.0424 22.741L22.5292 20.913C20.3343 19.1441 17.5413 18.0833 14.4994 18.0833V21.0295C16.5546 21.0295 18.4636 21.6616 20.0424 22.741Z" fill="url(#paint5_linear)"/>
<defs>
<linearGradient id="paint0_linear" x1="13.667" y1="41.8127" x2="23.0644" y2="39.6832" gradientUnits="userSpaceOnUse">
<stop offset="0.1226" stop-color="#A3CD39"/>
<stop offset="0.2846" stop-color="#86C339"/>
<stop offset="0.8693" stop-color="#21A038"/>
</linearGradient>
<linearGradient id="paint1_linear" x1="6.05636" y1="39.4855" x2="2.84387" y2="30.1755" gradientUnits="userSpaceOnUse">
<stop offset="0.1444" stop-color="#F2E913"/>
<stop offset="0.3037" stop-color="#E7E518"/>
<stop offset="0.5823" stop-color="#CADB26"/>
<stop offset="0.891" stop-color="#A3CD39"/>
</linearGradient>
<linearGradient id="paint2_linear" x1="5.75802" y1="39.034" x2="14.5004" y2="42.309" gradientUnits="userSpaceOnUse">
<stop offset="0.1324" stop-color="#F2E913"/>
<stop offset="0.2977" stop-color="#EBE716"/>
<stop offset="0.5306" stop-color="#D9E01F"/>
<stop offset="0.8023" stop-color="#BBD62D"/>
<stop offset="0.9829" stop-color="#A3CD39"/>
</linearGradient>
<linearGradient id="paint3_linear" x1="6.30227" y1="22.3403" x2="14.6092" y2="19.1665" gradientUnits="userSpaceOnUse">
<stop offset="0.0592" stop-color="#0FA8E0"/>
<stop offset="0.5385" stop-color="#0099F9"/>
<stop offset="0.9234" stop-color="#0291EB"/>
</linearGradient>
<linearGradient id="paint4_linear" x1="2.81385" y1="31.1933" x2="6.30953" y2="22.0761" gradientUnits="userSpaceOnUse">
<stop offset="0.0698" stop-color="#A3CD39"/>
<stop offset="0.2599" stop-color="#81C55F"/>
<stop offset="0.9216" stop-color="#0FA8E0"/>
</linearGradient>
<linearGradient id="paint5_linear" x1="13.8815" y1="19.0709" x2="21.9144" y2="21.5559" gradientUnits="userSpaceOnUse">
<stop offset="0.0566" stop-color="#0291EB"/>
<stop offset="0.79" stop-color="#0C8ACB"/>
</linearGradient>
</defs>
</svg>
