<svg width="156" height="19" viewBox="0 0 156 19" fill="none" xmlns="http://www.w3.org/2000/svg">
<path d="M11.7374 0.197998V5.09841H9.7695C7.28325 5.09841 5.28125 7.03166 5.28125 9.43121C5.28125 11.8315 7.28325 13.7648 9.7695 13.7648H11.7374V18.6652C13.9443 18.2592 15.936 17.1137 17.3673 15.4273C18.7985 13.7408 19.5792 11.6196 19.5739 9.43121C19.5739 4.86487 16.2248 1.06487 11.7374 0.197998Z" fill="#003791"/>
<path d="M9.77031 15.2998C6.42119 15.2998 3.69362 12.6667 3.69362 9.4335C3.69362 6.20033 6.42119 3.56725 9.77031 3.56725H10.1497V0H9.77031C4.38425 0 0 4.23304 0 9.4335C0 14.6664 4.38425 18.9003 9.77031 18.9003H10.1497V15.2998H9.77031ZM32.9591 12.8163C32.1852 13.437 31.2135 13.7757 30.2112 13.7742C29.6406 13.7758 29.0753 13.6674 28.5478 13.4553C28.0203 13.2433 27.5411 12.9317 27.1376 12.5385C26.7342 12.1453 26.4145 11.6783 26.1969 11.1643C25.9794 10.6503 25.8683 10.0995 25.87 9.54354C25.8683 8.98756 25.9794 8.43673 26.1969 7.92274C26.4145 7.40875 26.7342 6.94174 27.1376 6.54856C27.5411 6.15538 28.0203 5.8438 28.5478 5.63174C29.0753 5.41967 29.6406 5.31131 30.2112 5.31288C31.2967 5.31288 32.3147 5.70871 33.0606 6.37054L34.5865 4.88221C33.3924 3.81627 31.8307 3.22655 30.2112 3.23C26.6159 3.23 23.7331 6.07208 23.7331 9.54354C23.7331 13.0142 26.6159 15.8903 30.2112 15.8903C31.8736 15.8903 33.3661 15.295 34.4849 14.3038L32.9591 12.8163ZM101.981 3.72875L97.1986 9.348L92.382 3.72875L92.3479 3.79525V3.72875H90.415V15.3647H92.3487V6.83604L97.1986 12.4553L101.981 6.96825V15.3647H103.881V3.72875H101.981ZM46.7878 9.54354C46.79 10.0993 46.6793 10.6501 46.4621 11.164C46.245 11.678 45.9257 12.1451 45.5226 12.5383C45.1195 12.9316 44.6406 13.2433 44.1134 13.4556C43.5862 13.6678 43.0211 13.7764 42.4507 13.775C41.8802 13.7765 41.315 13.668 40.7877 13.4558C40.2604 13.2436 39.7814 12.9319 39.3782 12.5386C38.975 12.1453 38.6557 11.6782 38.4385 11.1642C38.2213 10.6502 38.1106 10.0994 38.1127 9.54354C38.1107 8.98774 38.2215 8.43703 38.4387 7.92311C38.656 7.40918 38.9753 6.94218 39.3785 6.54898C39.7817 6.15579 40.2607 5.84415 40.7879 5.63201C41.3152 5.41987 41.8803 5.31141 42.4507 5.31288C43.021 5.31151 43.5861 5.42005 44.1132 5.63224C44.6404 5.84443 45.1193 6.15608 45.5223 6.54926C45.9254 6.94245 46.2447 7.40941 46.4619 7.92329C46.6791 8.43716 46.7898 8.98781 46.7878 9.54354ZM48.9669 9.54354C48.9669 6.07288 46.0501 3.23 42.4881 3.23C38.9269 3.23 36.01 6.07208 36.01 9.54354C36.01 13.0142 38.8927 15.8571 42.4881 15.8571C46.0501 15.8571 48.9669 13.0475 48.9669 9.54354ZM86.3094 9.54354C86.3094 11.8908 84.3416 13.775 81.9674 13.775C81.3968 13.7766 80.8314 13.6682 80.3039 13.4561C79.7763 13.2439 79.297 12.9323 78.8936 12.539C78.4901 12.1458 78.1704 11.6787 77.9529 11.1646C77.7355 10.6505 77.6244 10.0996 77.6262 9.54354C77.6245 8.98756 77.7356 8.43673 77.9532 7.92274C78.1707 7.40875 78.4904 6.94174 78.8939 6.54856C79.2973 6.15538 79.7766 5.8438 80.304 5.63174C80.8315 5.41967 81.3968 5.31131 81.9674 5.31288C82.5381 5.3112 83.1035 5.41949 83.6311 5.63151C84.1586 5.84353 84.638 6.15509 85.0415 6.54828C85.4451 6.94147 85.7648 7.40852 85.9824 7.92256C86.2 8.4366 86.3111 8.98749 86.3094 9.54354ZM88.4463 9.54354C88.4463 6.07288 85.5627 3.23 81.9674 3.23C78.4062 3.23 75.4894 6.07208 75.4894 9.54354C75.4894 13.0142 78.3721 15.8571 81.9674 15.8571C85.5294 15.8571 88.4463 13.0475 88.4463 9.54354ZM75.4552 3.72875H72.8439L67.925 8.62125H65.9238V3.72875H64.025V15.3647H65.9246V10.5054H67.8909L72.8097 15.3647H75.3878L69.5541 9.57996L75.4552 3.72875Z" fill="#FF4B5F"/>
<path d="M155.909 3.72876H153.331L148.379 8.62126H146.378V3.72876H144.479V15.3647H146.378V10.5054H148.379L153.263 15.3647H155.841L150.041 9.57997L155.909 3.72876ZM121.348 11.001L123.586 6.10851L125.825 11.001H121.348ZM127.826 15.3647H129.929L124.672 3.72876H122.501L117.244 15.3647H119.346L120.5 12.8519H126.673L127.826 15.3647Z" fill="#003791"/>
<path d="M58.1245 13.5138H53.1041V10.5054H58.1578C59.0061 10.5054 59.6845 11.1989 59.6845 11.993C59.6504 12.8187 58.972 13.513 58.1245 13.513V13.5138ZM53.1041 5.61293H58.1245C58.3252 5.61209 58.5241 5.65 58.7097 5.72447C58.8952 5.79893 59.0638 5.90849 59.2057 6.0468C59.3476 6.1851 59.4599 6.34943 59.5362 6.53028C59.6126 6.71113 59.6514 6.90492 59.6504 7.10047C59.6514 7.29601 59.6126 7.4898 59.5362 7.67066C59.4599 7.85151 59.3476 8.01583 59.2057 8.15414C59.0638 8.29245 58.8952 8.402 58.7097 8.47647C58.5241 8.55094 58.3252 8.58885 58.1245 8.58801H53.1041V5.61293ZM61.5842 11.993C61.5849 11.5345 61.4889 11.0808 61.3022 10.66C61.1155 10.2392 60.842 9.86024 60.4987 9.54672C61.143 8.91813 61.5842 8.05838 61.5842 7.10047C61.5842 5.24955 60.0575 3.72876 58.1578 3.72876H51.1711V15.3979H58.1587C59.0732 15.3797 59.9441 15.013 60.5845 14.3765C61.2248 13.74 61.5837 12.8843 61.5842 11.993Z" fill="#FF4B5F"/>
<path d="M140.17 3.76043V8.61968H133.217V3.76043H131.284V15.3298H133.217V10.5038H140.17V15.3298H142.104V3.76043H140.17ZM113.106 13.5138H108.086V10.5054H113.106C113.954 10.5054 114.632 11.1989 114.632 11.993C114.632 12.8187 113.954 13.513 113.106 13.513V13.5138ZM116.566 11.993C116.566 10.1413 115.006 8.62047 113.106 8.62047H108.086V5.61293H115.412V3.72876H106.153V15.3979H113.106C115.005 15.3647 116.566 13.8439 116.566 11.993Z" fill="#003791"/>
</svg>
