<svg width="56" height="56" viewBox="0 0 56 56" fill="none" xmlns="http://www.w3.org/2000/svg">
<g clip-path="url(#clip0)">
<path d="M40.7347 -1.19861e-05C40.7347 13.1925 40.7347 18.0217 40.7347 35.7873C25.9936 35.7873 40.2133 35.7873 25.476 35.7873C25.476 27.4461 25.476 27.4357 25.476 25.7245H20.613C20.613 41.0859 20.613 46.4651 20.613 56H25.476C25.476 50.1683 25.476 43.7073 25.476 40.7335C40.2185 40.7335 25.9988 40.7335 40.7347 40.7335C40.7347 44.5147 40.7347 46.5132 40.7347 50.7638H45.4482C45.4482 33.8577 45.4482 16.9373 45.4482 -0.00131226H40.7347V-1.19861e-05Z" fill="white"/>
<path d="M15.264 56C15.264 42.1352 15.264 37.4139 15.264 20.3752C25.6765 20.3752 22.4857 20.3752 30.8269 20.3752C30.8269 28.7177 30.8269 28.7229 30.8269 30.438H35.3856C35.3856 18.967 35.3856 25.8181 35.3856 0H30.8269C30.8269 5.40652 30.8269 10.4061 30.8269 15.8165C22.487 15.8165 25.6765 15.8165 15.264 15.8165C15.264 1.14294 15.264 4.00873 15.264 0H10.5492C10.5492 11.8585 10.5492 40.4241 10.5492 56H15.264Z" fill="white"/>
</g>
<defs>
<clipPath id="clip0">
<rect width="56" height="56" fill="white"/>
</clipPath>
</defs>
</svg>
