<svg width="148" height="30" viewBox="0 0 148 30" fill="none" xmlns="http://www.w3.org/2000/svg">
<g clip-path="url(#clip0)">
<path d="M25.8554 20.775C25.4839 20.775 25.261 21 25.261 21.375V24.6H20.4317V21.375C20.4317 21 20.2088 20.775 19.8373 20.775C19.4659 20.775 19.243 21 19.243 21.375V29.175C19.243 29.55 19.4659 29.775 19.8373 29.775C20.2088 29.775 20.4317 29.55 20.4317 29.175V25.725H25.3353V29.175C25.3353 29.55 25.5582 29.775 25.9297 29.775C26.3012 29.775 26.5241 29.55 26.5241 29.175V21.375C26.4498 21 26.2269 20.775 25.8554 20.775ZM31.8735 25.2L35.2912 21.75C35.4398 21.6 35.5141 21.45 35.5141 21.3C35.5141 21 35.3655 20.775 34.994 20.775C34.8454 20.775 34.6968 20.85 34.5482 21L31.2048 24.375C31.0562 24.525 30.8333 24.675 30.5361 24.675H29.8675V21.45C29.8675 21.075 29.6446 20.85 29.2731 20.85C28.9016 20.85 28.6787 21.075 28.6787 21.45V29.175C28.6787 29.55 28.9016 29.775 29.2731 29.775C29.6446 29.775 29.8675 29.55 29.8675 29.175V25.725H30.4618C30.759 25.725 30.9076 25.8 31.1305 26.025L34.6225 29.55C34.7711 29.7 34.9197 29.775 35.0683 29.775C35.3655 29.775 35.5884 29.55 35.5884 29.25C35.5884 29.025 35.5141 28.95 35.3655 28.725L31.8735 25.2ZM39.2289 10.125C38.7088 10.425 37.9659 10.575 37.2972 10.575C36.1827 10.575 35.4398 10.05 35.4398 9.225C35.4398 8.475 36.0341 7.875 37.2972 7.875C37.9659 7.875 38.4859 7.95 39.2289 8.175V10.125ZM37.4458 2.925C36.4799 2.925 35.5884 3.15 34.994 3.45C34.5482 3.675 34.3253 3.9 34.3253 4.275C34.3253 4.725 34.6968 5.025 35.0683 5.025C35.2912 5.025 35.5141 4.95 35.7369 4.875C36.1084 4.725 36.7028 4.575 37.2972 4.575C38.6345 4.575 39.2289 5.1 39.2289 6.15V6.9C38.4116 6.675 37.8173 6.6 37.0743 6.6C34.8454 6.6 33.7309 7.875 33.7309 9.3C33.7309 10.95 34.9197 12.15 37.0743 12.15C38.7831 12.15 40.0462 11.625 40.5663 11.25C40.7892 11.1 40.8634 10.95 40.8634 10.575V6.225C40.8634 3.975 39.6004 2.925 37.4458 2.925ZM58.6948 8.7C58.3233 8.7 58.1004 8.925 57.9518 9.225C57.6546 9.9 56.9859 10.35 56.0944 10.35C54.8313 10.35 54.0883 9.6 54.0141 8.475C53.9398 7.875 53.9398 7.2 54.0141 6.6C54.0883 5.475 54.8313 4.725 56.0944 4.725C56.9859 4.725 57.6546 5.175 57.9518 5.85C58.1004 6.075 58.3233 6.375 58.6948 6.375C59.2149 6.375 59.5863 6.075 59.5863 5.55C59.5863 5.25 59.512 5.025 59.3634 4.725C58.8434 3.75 57.7289 2.925 56.0944 2.925C53.9398 2.925 52.4538 4.275 52.3052 6.3C52.2309 6.975 52.2309 8.025 52.3052 8.7C52.5281 10.65 53.9398 12.075 56.0944 12.075C57.7289 12.075 58.8434 11.325 59.3634 10.35C59.512 10.05 59.5863 9.825 59.5863 9.525C59.5863 9 59.2149 8.7 58.6948 8.7ZM19.0201 10.5L15.9739 7.425L18.8715 4.5C19.0944 4.275 19.243 4.05 19.243 3.825C19.243 3.375 18.9458 3.075 18.5 3.075C18.2771 3.075 18.0542 3.15 17.8313 3.45L14.8594 6.45C14.7108 6.6 14.5622 6.675 14.2651 6.675H13.6707V4.05C13.6707 3.45 13.2992 3.075 12.7791 3.075C12.259 3.075 11.8875 3.45 11.8875 4.05V11.175C11.8875 11.775 12.259 12.15 12.7791 12.15C13.2992 12.15 13.6707 11.775 13.6707 11.175V8.325H14.1908C14.4137 8.325 14.5622 8.4 14.7851 8.55L17.9056 11.7C18.2028 12 18.3514 12.075 18.6486 12.075C19.0944 12.075 19.4659 11.775 19.4659 11.25C19.3916 10.95 19.243 10.725 19.0201 10.5ZM48.8132 8.475C48.739 9.6 47.996 10.35 46.7329 10.35C46.0643 10.35 45.247 10.125 44.8012 9.825V5.175C45.1727 4.875 46.0643 4.65 46.7329 4.65C47.996 4.65 48.739 5.4 48.8132 6.525C48.8132 7.125 48.8132 7.875 48.8132 8.475ZM46.7329 2.925C45.1727 2.925 43.9839 3.45 43.4639 3.75C43.0924 3.975 43.0181 4.2 43.0181 4.875V13.95C43.0181 14.55 43.3896 14.925 43.9096 14.925C44.4297 14.925 44.8012 14.55 44.8012 13.95V11.55C45.3213 11.775 46.1385 12 46.8815 12C48.8875 12 50.2992 10.65 50.5221 8.625C50.5964 7.95 50.5964 6.825 50.5221 6.15C50.3735 4.35 48.9618 2.925 46.7329 2.925ZM15.9739 28.125C15.3052 28.5 14.4137 28.725 13.5964 28.725C12.1104 28.725 11.2932 28.125 11.2932 27C11.2932 26.025 12.0361 25.275 13.5964 25.275C14.3394 25.275 15.008 25.425 15.9739 25.65V28.125ZM13.8936 20.7C12.8534 20.7 11.8875 21 11.3675 21.225C10.996 21.375 10.8474 21.525 10.8474 21.825C10.8474 22.125 11.0703 22.35 11.3675 22.35C11.5161 22.35 11.6647 22.275 11.8133 22.2C12.259 22.05 13.002 21.825 13.745 21.825C15.2309 21.825 15.9739 22.425 15.9739 23.85V24.675C15.008 24.375 14.3394 24.3 13.5221 24.3C11.2932 24.3 10.1787 25.575 10.1787 27C10.1787 28.725 11.4418 29.85 13.4478 29.85C15.0823 29.85 16.3454 29.25 16.8655 28.95C17.0884 28.8 17.0884 28.725 17.0884 28.425V23.85C17.0884 21.675 15.8996 20.7 13.8936 20.7ZM5.3494 28.5H2.08032V23.775H5.3494C7.05823 23.775 7.8012 24.675 7.8012 26.175C7.8012 27.675 7.05823 28.5 5.3494 28.5ZM5.49799 22.65H2.08032V18.975H7.8012C8.17269 18.975 8.46988 18.75 8.46988 18.375C8.46988 18 8.17269 17.775 7.8012 17.775H1.93173C1.26305 17.775 0.891566 18.15 0.891566 18.825V28.575C0.891566 29.25 1.26305 29.625 1.93173 29.625H5.49799C7.72691 29.625 8.98996 28.35 8.98996 26.025C8.98996 23.925 7.72691 22.65 5.49799 22.65ZM25.7811 6.3H28.6787C30.0161 6.3 30.6847 6.975 30.6847 8.25C30.6847 9.45 30.0904 10.2 28.6787 10.2H25.7811V6.3ZM25.3353 11.925H28.8273C31.1305 11.925 32.4679 10.575 32.4679 8.175C32.4679 5.925 31.1305 4.65 28.8273 4.65H25.7811V1.8H30.9819C31.5763 1.8 31.9478 1.425 31.9478 0.9C31.9478 0.375 31.5763 0.075 30.9819 0.075H25.3353C24.4438 0.075 23.9237 0.6 23.9237 1.5V10.575C23.998 11.475 24.4438 11.925 25.3353 11.925ZM3.41767 6.6L5.05221 1.95C5.12651 1.8 5.2008 1.725 5.2751 1.725C5.42369 1.725 5.42369 1.8 5.49799 1.95L7.13253 6.6H3.41767ZM10.5502 11.175C10.5502 11.025 10.5502 10.875 10.4016 10.575L7.13253 1.575C6.76104 0.45 6.16667 0 5.2751 0C4.38353 0 3.78916 0.45 3.41767 1.575L0.148594 10.575C0.0742972 10.875 0 11.025 0 11.175C0 11.625 0.371486 12 0.891566 12C1.33735 12 1.63454 11.775 1.78313 11.25L2.82329 8.175H7.65261L8.69277 11.25C8.84136 11.775 9.21285 12 9.58434 12C10.1787 12 10.5502 11.625 10.5502 11.175Z" fill="#353535"/>
<path d="M147.52 14.1C146.331 11.025 143.285 9.3 140.09 9.9L133.403 11.1C132.289 11.325 131.546 12.375 131.769 13.5C131.992 14.625 133.032 15.375 134.146 15.15L140.833 13.95C142.393 13.65 143.434 14.625 143.805 15.6C144.176 16.575 144.102 18 142.765 18.825L132.958 25.2C132.066 25.8 130.952 25.8 129.986 25.35C129.02 24.825 128.5 23.85 128.5 22.8V2.025C128.5 0.9 127.608 0 126.494 0C125.379 0 124.488 0.9 124.488 2.025V22.8C124.488 25.425 125.825 27.75 128.128 28.95C129.168 29.55 130.357 29.85 131.472 29.85C132.809 29.85 134.072 29.475 135.261 28.725L145.068 22.35C147.668 20.475 148.709 17.175 147.52 14.1ZM113.046 9.9L106.359 11.1C105.245 11.325 104.502 12.375 104.725 13.5C104.948 14.625 105.988 15.375 107.102 15.15L113.789 13.95C115.349 13.65 116.389 14.625 116.761 15.6C117.132 16.575 117.058 18 115.721 18.825L105.913 25.2C105.022 25.8 103.907 25.8 102.942 25.35C101.976 24.825 101.456 23.85 101.456 22.8V7.05C101.456 4.425 100.118 2.1 97.8151 0.9C95.5118 -0.3 92.9114 -0.225 90.6825 1.2L66.0902 17.25C63.3412 19.05 62.301 22.35 63.4898 25.425C64.6785 28.5 67.7247 30.225 70.9195 29.625L92.3914 25.725C93.5058 25.5 94.2488 24.45 94.0259 23.325C93.803 22.2 92.7628 21.45 91.6484 21.675L70.1765 25.575C68.6163 25.875 67.5761 24.9 67.2046 23.925C66.8331 22.95 66.9074 21.525 68.2448 20.7L92.8371 4.575C93.7287 3.975 94.8432 3.975 95.809 4.425C96.7749 4.95 97.295 5.925 97.295 6.975V22.725C97.295 25.35 98.6323 27.675 100.936 28.875C101.976 29.475 103.164 29.775 104.279 29.775C105.616 29.775 106.879 29.4 108.068 28.65L117.875 22.275C120.624 20.475 121.664 17.175 120.476 14.1C119.287 11.025 116.315 9.3 113.046 9.9Z" fill="#439846"/>
</g>
<defs>
<clipPath id="clip0">
<rect width="148" height="30" fill="white"/>
</clipPath>
</defs>
</svg>
