<svg width="60" height="60" viewBox="0 0 60 60" fill="none" xmlns="http://www.w3.org/2000/svg">
<path d="M38.4375 0H21.5625C14.0149 0 10.2411 0 7.35832 1.46886C4.82255 2.7609 2.7609 4.82255 1.46886 7.35832C0 10.2411 0 14.0149 0 21.5625V38.4375C0 45.9851 0 49.7589 1.46886 52.6417C2.7609 55.1774 4.82255 57.2391 7.35832 58.5312C10.2411 60 14.0149 60 21.5625 60H38.4375C45.9851 60 49.7589 60 52.6417 58.5312C55.1774 57.2391 57.2391 55.1774 58.5312 52.6417C60 49.7589 60 45.9851 60 38.4375V21.5625C60 14.0149 60 10.2411 58.5312 7.35832C57.2391 4.82255 55.1774 2.7609 52.6417 1.46886C49.7589 0 45.9851 0 38.4375 0Z" fill="#EF3124"/>
<path fill-rule="evenodd" clip-rule="evenodd" d="M18.2812 47.4609H41.7773V42.7734H18.2812V47.4609Z" fill="white"/>
<path fill-rule="evenodd" clip-rule="evenodd" d="M26.8311 27.2655L29.9998 17.8475H30.117L33.1099 27.2655H26.8311ZM34.1647 16.109C33.5207 14.188 32.7783 12.6707 30.2344 12.6707C27.6905 12.6707 26.9006 14.1818 26.2224 16.109L19.2322 35.9765H23.8678L25.4814 31.289H34.4007L35.897 35.9765H40.826L34.1647 16.109Z" fill="white"/>
</svg>
