<svg width="53" height="53" viewBox="0 0 53 53" fill="none" xmlns="http://www.w3.org/2000/svg">
<path fill-rule="evenodd" clip-rule="evenodd" d="M18.8127 24.9539H24.6938V3.31226H18.8127V24.9539ZM15.5996 28.0389H27.9048V0.230957H15.5996V28.0389Z" fill="#072833"/>
<path fill-rule="evenodd" clip-rule="evenodd" d="M0.146729 34.1395H52.4509V31.0671H0.146729V34.1395Z" fill="#072833"/>
<path fill-rule="evenodd" clip-rule="evenodd" d="M3.34799 46.145H18.4665V40.2798H3.34799V46.145ZM0.146729 52.6946H3.34799V49.2136H21.6685V37.2083H0.146729V52.6946Z" fill="#072833"/>
<path fill-rule="evenodd" clip-rule="evenodd" d="M40.1461 3.31226V28.0384H43.3571V9.48056L49.237 3.3147V28.0384H52.4513V0.230957H47.938L43.3571 5.02056V0.230957H38.8458L31.0503 8.31372V28.0384H34.2654V9.48178L40.1461 3.31226Z" fill="#072833"/>
<path fill-rule="evenodd" clip-rule="evenodd" d="M28.0027 46.145H36.9228V40.2798H28.0027V46.145ZM40.2628 46.145H49.2508V40.2798H40.2628V46.145ZM24.7998 49.2136H36.9232V52.6946H40.2628V49.2136H52.4517V37.2083H24.7998V49.2136Z" fill="#072833"/>
<path fill-rule="evenodd" clip-rule="evenodd" d="M3.3615 9.48178L9.24018 3.3147V24.9543H3.3615V9.48178ZM9.24018 28.0384H12.4536V0.230957H7.94194L0.147217 8.31372V28.0384H9.24018Z" fill="#072833"/>
</svg>
