<svg width="154" height="30" viewBox="0 0 154 30" fill="none" xmlns="http://www.w3.org/2000/svg">
<path d="M14.9487 0C6.68215 0 0 6.70507 0 15C0 23.2949 6.68215 30 14.9487 30C23.2153 30 29.8975 23.2949 29.8975 15C29.8975 6.70507 23.2153 0 14.9487 0ZM12.8821 21.3594L11.7799 24.6083C7.64659 23.2258 4.89106 19.2857 4.89106 14.8618C4.89106 10.4378 7.64659 6.56682 11.8488 5.11521L12.951 8.36406C10.1955 9.26267 8.40436 11.8894 8.40436 14.7926C8.26658 17.8341 10.1266 20.4608 12.8821 21.3594ZM17.9798 24.6774L16.9465 21.3594C19.7709 20.4608 21.6309 17.8341 21.6309 14.8618C21.6309 11.8894 19.7709 9.3318 17.0154 8.43318L18.1176 5.11521C22.3198 6.4977 25.1442 10.4378 25.1442 14.8618C25.1442 19.424 22.2509 23.3641 17.9798 24.6774Z" fill="#00BEF0"/>
<path d="M151.83 17.696L153.483 19.7006C151.761 21.4978 149.625 21.9817 147.903 21.9817C146.25 21.9817 145.079 21.7052 144.045 21.2213C141.841 20.1153 140.739 17.9033 140.739 15.2075C140.739 11.1292 143.494 8.08768 147.559 8.08768C152.105 8.08768 154.31 11.4748 153.965 15.8987H143.632C143.701 17.0047 144.321 18.0416 145.216 18.5946C145.974 19.0785 146.87 19.2858 148.041 19.2858C149.35 19.2858 150.659 18.8711 151.83 17.696ZM143.701 13.4794H151.003C150.796 11.8895 149.487 10.507 147.421 10.507C145.285 10.507 143.976 12.0278 143.701 13.4794ZM74.3304 21.5669H78.0504L72.1949 14.7236L77.9815 8.29505H74.3304L69.9216 13.4103H68.6127V8.29505H65.7883V21.4978H68.6127V16.2444H69.9216L74.3304 21.5669ZM86.4547 10.7144C84.0436 10.7144 82.4592 12.5808 82.4592 14.931C82.4592 17.2812 84.0436 19.1476 86.4547 19.1476C88.8658 19.1476 90.3814 17.3504 90.3814 14.931C90.4502 12.6499 88.9347 10.7144 86.4547 10.7144ZM86.9369 8.01855C90.6569 8.01855 93.4124 10.9218 93.4124 14.931C93.4124 18.8711 90.7258 21.9126 86.9369 21.9126C85.1458 21.9126 83.6992 21.2904 82.6659 20.1845V27.0969H79.7726V8.36418H82.597V9.95404C83.6992 8.64067 85.1458 8.01855 86.9369 8.01855ZM124.481 8.36418H112.701V10.9909H117.179V21.5669H120.072V10.9909H124.55V8.36418H124.481ZM63.7905 8.36418H51.9417V10.9909H56.4195V21.5669H59.3128V10.9909H63.7905V8.36418ZM48.4973 15.0001C48.4973 12.5116 46.7751 10.7144 44.364 10.7144C42.0218 10.7144 40.2307 12.5116 40.2307 15.0001C40.2307 17.4886 41.953 19.2858 44.364 19.2858C46.7062 19.2858 48.4973 17.4886 48.4973 15.0001ZM37.2686 15.0001C37.2686 11.06 40.2996 8.08768 44.364 8.08768C48.3596 8.08768 51.4595 11.06 51.4595 15.0001C51.4595 18.9402 48.4284 21.9817 44.364 21.9817C40.3685 21.9126 37.2686 18.9402 37.2686 15.0001ZM138.465 8.36418V21.5669H135.641V13.0646L128.752 21.5669H126.479V8.36418H129.303V16.8665L136.192 8.36418H138.465ZM110.703 21.5669H107.879V8.36418H110.703V21.5669ZM103.401 17.0739C103.401 15.8987 102.575 15.0692 101.472 15.0692H98.5791V19.1476H101.472C102.575 19.1476 103.401 18.249 103.401 17.0739ZM106.226 17.0739C106.226 19.7006 104.297 21.5669 101.541 21.5669H95.7546V8.36418H98.5791V12.6499H101.817C104.572 12.6499 106.226 14.4471 106.226 17.0739Z" fill="black"/>
</svg>
