<svg width="133" height="47" viewBox="0 0 133 47" fill="none" xmlns="http://www.w3.org/2000/svg">
<g clip-path="url(#clip0)">
<path d="M38.542 6.27776H6.86111L9.14339 0.0148926H40.8243L38.542 6.27776ZM37.4009 9.4092H5.70571L3.42342 15.6721H35.1044L37.4009 9.4092ZM33.9775 18.775H2.28228L0 25.0379H31.6524L33.9775 18.775Z" fill="#009FDF"/>
<path d="M114.028 40.7085H119.734C120.545 40.8051 121.367 40.7012 122.129 40.4058C122.89 40.1104 123.567 39.6327 124.099 39.0147C124.882 37.9926 125.276 36.7268 125.212 35.442C125.265 34.6245 125.115 33.8065 124.774 33.0613C124.433 32.3161 123.912 31.6669 123.257 31.1719C122.198 30.4804 120.939 30.1599 119.677 30.2609H114.028V40.7085ZM106.54 47.0141V9.40842H131.06L128.906 15.714H114.028V24.0408H120.091C124.983 24.0408 127.522 25.2079 129.277 26.7025C130.531 27.8109 131.518 29.1883 132.163 30.7315C132.807 32.2747 133.094 33.9435 133 35.6128C133.096 37.4104 132.741 39.2036 131.966 40.8293C131.191 42.455 130.022 43.8617 128.564 44.9217C126.21 46.5444 123.742 46.9999 118.721 46.9999L106.54 47.0141ZM84.8295 47.0141V15.6998H73.9316V9.40842H104.186L102.032 15.714H92.3896V47.0283L84.8295 47.0141ZM54.632 24.4678H58.9113C59.7865 24.5274 60.6658 24.4603 61.5217 24.2685C62.4118 23.9848 63.1789 23.4077 63.6973 22.6318C64.2156 21.856 64.4544 20.9274 64.3745 19.9984C64.4933 19.0752 64.2684 18.1407 63.7426 17.372C63.2167 16.6033 62.4265 16.0538 61.5217 15.8279C60.5872 15.6114 59.6271 15.5251 58.6688 15.5716H54.632V24.4678ZM54.632 30.9726V40.8366H59.8528C61.2916 41.0007 62.7382 40.6029 63.8896 39.7264C64.4202 39.2358 64.8359 38.6345 65.1071 37.9653C65.3783 37.2962 65.4983 36.5755 65.4586 35.8548C65.4813 34.7032 65.1312 33.5751 64.4601 32.638C63.3475 31.2146 61.9781 30.9441 59.6388 30.9441L54.632 30.9726ZM66.6996 27.0014V27.1295C67.9714 27.618 69.1599 28.2998 70.2229 29.1507C71.2974 30.0405 72.1467 31.1705 72.7018 32.4491C73.2569 33.7276 73.5023 35.1187 73.4181 36.5096C73.4181 41.648 70.6793 45.363 66.1861 46.4732C64.3951 46.9101 62.5503 47.0875 60.7086 46.9999H47.1433V9.40842H59.2109C61.1276 9.3385 63.0453 9.51551 64.9166 9.93507C69.2814 11.1022 72.1486 14.1056 72.1486 18.8454C72.1842 19.9755 71.9889 21.101 71.5744 22.1532C71.16 23.2055 70.5351 24.1625 69.7379 24.966C68.8913 25.8237 67.8829 26.5058 66.7709 26.9729L66.6996 27.0014Z" fill="#0A2973"/>
</g>
<defs>
<clipPath id="clip0">
<rect width="133" height="47" fill="white"/>
</clipPath>
</defs>
</svg>
